<svg xmlns="http://www.w3.org/2000/svg" height="48" viewBox="0 -960 960 960" width="48"><path d="m730.154-178.501-30.192-30.192 80.347-82.423H588.577v-43.845h191.732l-80.347-81.732 30.192-30.883 134.883 134.883-134.883 134.192ZM147.27-291.116q-23.515 0-39.834-16.32-16.32-16.319-16.32-39.834v-426.152q0-22.866 16.32-39.51 16.319-16.644 39.834-16.644h546.152q22.866 0 39.51 16.644t16.644 39.51v233.73q-5.577-.231-11.564-.635-5.987-.403-10.705-.403-5.313 0-10.704.557-5.391.558-10.872.673v-210.424L416-542.154 134.961-749.309v402.039q0 5.385 3.462 8.847 3.462 3.462 8.847 3.462h352.423q-.09 5.977.089 10.415.18 4.438.18 9.973 0 5.88.058 11.803.057 5.923 1.288 11.654H147.27Zm11.267-494.615L416-595.846l264.232-189.885H158.537Zm-23.576 450.77v-450.77 450.77Z"/></svg>