<svg xmlns="http://www.w3.org/2000/svg" fill="white" viewBox="0 0 100 125" x="0px" y="0px"><path d="m 14.99249,14.990151 c 0,7.77822 0,15.55644 0,23.33466 7.78003,0 15.56008,0 23.34012,0 0,-7.77822 0,-15.55644 0,-23.33466 -7.78004,0 -15.56009,0 -23.34012,0 z m 3.3343,3.333524 c 5.55718,0 11.11434,0 16.67152,0 0,5.555871 0,11.111742 0,16.667614 -5.55718,0 -11.11434,0 -16.67152,0 0,-5.555872 0,-11.111743 0,-16.667614 z" color="#000"/><path d="m 21.65842,21.665142 10.00292,0 0,10.000567 -10.00292,0 z" color="#000"/><path d="m 41.66344,14.989979 c 0,2.220034 0,4.440068 0,6.660102 l 3.33083,0 0,-3.33005 3.33083,0 0,-3.330052 c -2.22056,0 -4.44111,0 -6.66166,0 z" color="#000"/><path d="m 51.68024,14.989979 0,3.330052 c 2.22055,0 4.4411,0 6.66166,0 l 0,-3.330052 c -2.22056,0 -4.44111,0 -6.66166,0 z" color="#000"/><path d="m 41.66344,24.980132 c 0,2.228135 0,4.456272 0,6.684408 l 3.33083,0 c 0,-2.228136 0,-4.456273 0,-6.684408 z" color="#000"/><path d="m 68.33867,21.665142 10.00291,0 0,10.000568 -10.00291,0 z" color="#000"/><path d="m 31.67095,44.984743 c 0,2.228135 0,4.456271 0,6.684408 2.22054,0 4.4411,0 6.66166,0 l 0,-3.354358 -3.33083,0 0,-3.33005 z" color="#000"/><path d="m 35.00178,41.654692 0,3.330051 c 2.22054,0 4.4411,0 6.66166,0 l 0,-3.330051 c -2.22056,0 -4.44112,0 -6.66166,0 z" color="#000"/><path d="m 38.33261,51.669151 c 0,2.220033 0,4.440066 0,6.660101 2.22054,0 4.4411,0 6.66166,0 l 0,-3.330051 -3.33083,0 0,-3.33005 z" color="#000"/><path d="m 21.65842,68.334291 10.00292,0 0,10.000569 -10.00292,0 z" color="#000"/><path d="m 21.65414,44.984743 0,3.33005 3.33083,0 0,3.354358 3.35515,0 c 0,-2.228137 0,-4.456273 0,-6.684408 -2.22867,0 -4.45732,0 -6.68598,0 z" color="#000"/><path d="m 28.3297,41.658167 0,3.333523 3.3343,0 0,-3.333523 z" color="#000"/><path d="m 14.99248,48.314793 c 0,3.338154 0,6.676305 0,10.014459 l 3.33083,0 0,-3.330051 3.33083,0 0,-3.33005 -3.33083,0 0,-3.354358 z" color="#000"/><path d="m 44.99427,58.329252 0,3.33005 c 2.22865,0 4.45731,0 6.68597,0 l 0,-3.33005 c -2.22866,0 -4.45732,0 -6.68597,0 z" color="#000"/><path d="m 31.664,58.325779 0,-3.333521 3.33431,0 0,3.333521 z" color="#000"/><path d="m 61.67273,54.999201 c 0,2.220034 0,4.440067 0,6.660101 l 3.33083,0 c 0,-2.220034 0,-4.440067 0,-6.660101 z" color="#000"/><path d="m 51.68024,48.314793 c 0,2.228135 0,4.456272 0,6.684408 l 3.33083,0 0,-3.33005 3.33083,0 0,-3.354358 c -2.22056,0 -4.44111,0 -6.66166,0 z" color="#000"/><path d="m 44.99427,48.314793 c 0,2.228135 0,4.456272 0,6.684408 l 3.33083,0 c 0,-2.228136 0,-4.456273 0,-6.684408 z" color="#000"/><path d="m 75.00993,61.659302 0,-3.333523 3.33431,0 0,3.333523 z" color="#000"/><path d="m 58.33843,48.325379 0,-3.333523 3.3343,0 0,3.333523 z" color="#000"/><path d="m 48.3251,68.319404 0,3.33005 c -2.22056,0 -4.44111,0 -6.66166,0 0,2.228136 0,4.456269 0,6.684411 l 3.33083,0 0,-3.330053 c 2.22865,0 4.45731,0 6.68597,0 0,-2.228136 0,-4.456273 0,-6.684408 z" color="#000"/><path d="m 21.65414,54.999201 0,3.330051 c 2.22866,0 4.45731,0 6.68598,0 l 0,-3.330051 c -2.22867,0 -4.45732,0 -6.68598,0 z" color="#000"/><path d="m 48.3251,41.654692 c 0,2.220033 0,4.440067 0,6.660101 l 3.35514,0 c 0,-2.220034 0,-4.440068 0,-6.660101 z" color="#000"/><path d="m 61.67273,48.314793 0,3.354358 3.33083,0 0,3.33005 3.33083,0 c 0,-2.228136 0,-4.456273 0,-6.684408 -2.22056,0 -4.44111,0 -6.66166,0 z" color="#000"/><path d="m 71.66522,48.314793 c 0,2.228135 0,4.456272 0,6.684408 l 3.35514,0 0,-3.33005 3.33083,0 0,-3.354358 c -2.22866,0 -4.45731,0 -6.68597,0 z" color="#000"/><path d="m 68.33439,41.654692 c 0,2.220033 0,4.440067 0,6.660101 l 3.33083,0 c 0,-2.220034 0,-4.440068 0,-6.660101 z" color="#000"/><path d="m 68.34134,58.325779 0,-3.333522 3.3343,0 0,3.333522 z" color="#000"/><path d="m 61.67273,64.989352 0,3.330052 3.33083,0 c 0,2.228135 0,4.456272 0,6.684408 l 3.33083,0 c 0,-3.636187 0,-6.443133 0,-10.01446 -2.22056,0 -4.44111,0 -6.66166,0 z" color="#000"/><path d="m 55.01107,68.319404 0,3.33005 c 2.22055,0 4.4411,0 6.66166,0 l 0,-3.33005 c -2.22056,0 -4.44111,0 -6.66166,0 z" color="#000"/><path d="m 71.66522,78.333865 0,3.33005 -3.33083,0 0,3.330045 c 2.22866,0 4.45731,0 6.68597,0 0,-2.220031 0,-4.440067 0,-6.660095 z" color="#000"/><path d="m 55.01107,54.999201 c 0,3.330051 0,6.660101 0,9.990151 2.22055,0 4.4411,0 6.66166,0 l 0,-3.33005 -3.33083,0 c 0,-2.220034 0,-4.440067 0,-6.660101 z" color="#000"/><path d="m 68.33439,61.659302 0,3.33005 3.33083,0 0,3.330052 3.35514,0 c 0,-2.220034 0,-4.440068 0,-6.660102 -2.22866,0 -4.45731,0 -6.68597,0 z" color="#000"/><path d="m 61.67273,75.003812 0,3.330053 -3.33083,0 0,3.33005 3.33083,0 0,3.330045 3.33083,0 c 0,-3.330045 0,-6.660095 0,-9.990148 z" color="#000"/><path d="m 41.66344,61.659302 c 0,2.220034 0,4.440068 0,6.660102 2.22055,0 4.4411,0 6.66166,0 l 0,-3.330052 -3.33083,0 0,-3.33005 z" color="#000"/><path d="m 51.68024,81.663915 0,3.330045 c 2.22055,0 4.4411,0 6.66166,0 l 0,-3.330045 c -2.22056,0 -4.44111,0 -6.66166,0 z" color="#000"/><path d="m 78.35119,64.989352 0,3.330052 -3.33083,0 0,3.33005 c 2.22055,0 4.44111,0 6.66166,0 l 0,-3.33005 3.33083,0 0,-3.330052 c -2.22055,0 -4.44111,0 -6.66166,0 z" color="#000"/><path d="m 75.02036,75.003812 0,3.330053 c 2.22055,0 4.44111,0 6.66166,0 l 0,-3.330053 c -2.22055,0 -4.44111,0 -6.66166,0 z" color="#000"/><path d="m 81.68202,78.333865 0,3.33005 -3.33083,0 0,3.330045 c 2.22055,0 4.44111,0 6.66166,0 0,-2.220031 0,-4.440067 0,-6.660095 z" color="#000"/><path d="m 71.67564,74.993394 0,-3.333524 3.33431,0 0,3.333524 z" color="#000"/><path d="m 51.68024,21.650081 c 0,2.228136 0,4.456272 0,6.684408 l 3.33083,0 0,-3.354357 3.33083,0 0,-3.330051 c -2.22056,0 -4.44111,0 -6.66166,0 z" color="#000"/><path d="m 81.67855,74.993396 0,-3.333524 3.3343,0 0,3.333524 z" color="#000"/><path d="m 44.99427,31.66454 0,3.33005 -3.33083,0 0,3.330051 3.33083,0 0,3.330051 3.33083,0 0,-3.330051 3.35514,0 0,-3.330051 -3.35514,0 0,-3.33005 -3.33083,0 z" color="#000"/><path d="m 81.68202,44.984743 c 0,2.228135 0,4.456271 0,6.684408 l 3.33083,0 c 0,-2.228137 0,-4.456273 0,-6.684408 z" color="#000"/><path d="m 61.67273,44.991856 0,-3.333523 3.3343,0 0,3.333523 z" color="#000"/><path d="m 78.35119,51.669151 c 0,2.220033 0,4.440066 0,6.660101 l 3.33083,0 0,3.33005 3.33083,0 c 0,-2.220034 0,-4.440067 0,-6.660101 l -3.33083,0 0,-3.33005 z" color="#000"/><path d="m 75.02036,41.654692 0,3.330051 c 2.22055,0 4.44111,0 6.66166,0 l 0,-3.330051 c -2.22055,0 -4.44111,0 -6.66166,0 z" color="#000"/><path d="m 55.00412,28.324243 0,3.333522 3.3343,0 0,-3.333522 z" color="#000"/><path d="m 41.66344,81.663915 0,3.330045 c 2.22055,0 4.4411,0 6.66166,0 l 0,-3.330045 c -2.22056,0 -4.44111,0 -6.66166,0 z" color="#000"/><path d="m 68.34134,78.326918 0,-3.333526 3.3343,0 0,3.333526 z" color="#000"/><path d="m 48.33551,81.660439 0,-3.333528 3.33431,0 0,3.333528 z" color="#000"/><path d="m 48.33552,31.657765 0,-3.333523 3.3343,0 0,3.333523 z" color="#000"/><path d="m 55.01107,34.99459 c 0,3.330051 0,6.660102 0,9.990153 l 3.33083,0 c 0,-3.330051 0,-6.660102 0,-9.990153 z" color="#000"/><path d="m 28.3297,51.658734 0,3.333522 3.3343,0 0,-3.333522 z" color="#000"/><path d="m 45.00121,24.99072 0,-3.333522 3.33431,0 0,3.333522 z" color="#000"/><path d="m 41.66691,48.325213 0,-3.333523 3.3343,0 0,3.333523 z" color="#000"/><path d="m 55.00412,78.326911 0,-3.333524 3.33431,0 0,3.333524 z" color="#000"/><path d="m 14.99248,41.654692 0,3.330051 c 2.22055,0 4.44111,0 6.66166,0 l 0,-3.330051 c -2.22055,0 -4.44111,0 -6.66166,0 z" color="#000"/><path d="m 61.67273,14.99015 c 0,7.77822 0,15.556441 0,23.33466 7.78004,0 15.56008,0 23.34012,0 0,-7.778219 0,-15.55644 0,-23.33466 -7.78004,0 -15.56008,0 -23.34012,0 z m 3.33431,3.333523 c 5.55717,0 11.11433,0 16.67151,0 0,5.555872 0,11.111744 0,16.667615 -5.55718,0 -11.11434,0 -16.67151,0 0,-5.555871 0,-11.111743 0,-16.667615 z" color="#000"/><path d="m 14.99249,61.659303 c 0,7.778219 0,15.556442 0,23.334657 7.78003,0 15.56008,0 23.34012,0 0,-7.778215 0,-15.556438 0,-23.334657 -7.78004,0 -15.56009,0 -23.34012,0 z m 3.3343,3.333523 c 5.55718,0 11.11434,0 16.67152,0 0,5.555871 0,11.111738 0,16.667613 -5.55718,0 -11.11434,0 -16.67152,0 0,-5.555875 0,-11.111742 0,-16.667613 z" color="#000"/><path d="m 51.66982,68.326351 0,-3.333523 3.3343,0 0,3.333523 z" color="#000"/><path d="m 5,5 0,23.334661 3.33083,0 c 0,-6.668204 0,-13.336407 0,-20.004611 6.66976,0 13.33953,0 20.00929,0 l 0,-3.33005 z" color="#000"/><path d="m 95,5.000001 0,23.334661 -3.33083,0 c 0,-6.668204 0,-13.336407 0,-20.004611 -6.66976,0 -13.33953,0 -20.00929,0 l 0,-3.33005 z" color="#000"/><path d="m 5,95 0,-23.33466 3.33083,0 c 0,6.668203 0,13.33641 0,20.00461 6.66976,0 13.33953,0 20.00929,0 l 0,3.33005 z" color="#000"/><path d="m 94.99971,94.99962 0,-23.334655 -3.33083,0 c 0,6.668202 0,13.336405 0,20.004605 -6.66976,0 -13.33953,0 -20.00929,0 l 0,3.33005 z" color="#000"/></svg>