<svg xmlns="http://www.w3.org/2000/svg" enable-background="new 0 0 48 48" viewBox="0 0 48 48" id="switch-camera"><path fill="#A55EEA" d="M40,41H8c-2.209,0-4-1.791-4-4V15c0-2.209,1.791-4,4-4h32c2.209,0,4,1.791,4,4v22
	C44,39.209,42.209,41,40,41z"></path><path fill="#A55EEA" d="M35,14H13l2.848-4.985C16.56,7.769,17.886,7,19.321,7h9.357c1.435,0,2.761,0.769,3.473,2.015L35,14z"></path><polygon fill="#fff" points="37 27 29 27 33 21.667"></polygon><polygon fill="#fff" points="11 25 19 25 15 30.333"></polygon><path fill="#fff" d="M30.598 18.536C28.837 16.969 26.537 16 24 16c-5.514 0-10 4.486-10 10 0 .309.019.614.046.917h2.01C16.022 26.615 16 26.31 16 26c0-4.411 3.589-8 8-8 2.088 0 3.975.819 5.398 2.136L30.598 18.536zM33.949 25h-2.019C31.972 25.328 32 25.661 32 26c0 4.411-3.589 8-8 8-2.088 0-3.975-.819-5.398-2.136l-1.199 1.598C19.164 35.03 21.463 36 24 36c5.514 0 10-4.486 10-10C34 25.662 33.982 25.329 33.949 25z"></path></svg>